# xmcd
#
# Track frame offsets:
#	182
#	13502
#	33735
#	50162
#	68040
#	85610
#	100670
#	119235
#	140865
#	153975
#	175272
#
# Disc length: 2523 seconds
#
# Revision: 12
# Processed by: cddbd v1.5.2PL0 Copyright (c) Steve Scherf et al.
# Submitted via: EasyCDDAExtractor 15.2.5.1
#
DISCID=9809d90b
DTITLE=Dwight Yoakam - This Time
DYEAR=1993
DGENRE=Country
TTITLE0=Pocket Of A Clown
TTITLE1=A Thousand Miles From Nowhere
TTITLE2=Home For Sale
TTITLE3=This Time
TTITLE4=Two Doors Down
TTITLE5=Ain't That Lonely Yet
TTITLE6=King Of Fools
TTITLE7=Fast As You
TTITLE8=Try Not To Look So Pretty
TTITLE9=Wild Ride
TTITLE10=Lonesome Roads
EXTD=
EXTT0=
EXTT1=
EXTT2=
EXTT3=
EXTT4=
EXTT5=
EXTT6=
EXTT7=
EXTT8=
EXTT9=
EXTT10=
PLAYORDER=
